HIERARCHY
ROOT Hips
{
  OFFSET -35.4901 99.2528 17.4586
  CHANNELS 6 Xposition Yposition Zposition Zrotation Xrotation Yrotation
  JOINT LeftUpLeg
  {
    OFFSET 8.64259 1.95398 -2.38835
    CHANNELS 3 Zrotation Xrotation Yrotation
    JOINT LeftLeg
    {
      OFFSET 43.7702 0 0
      CHANNELS 3 Zrotation Xrotation Yrotation
      JOINT LeftFoot
      {
        OFFSET 40.6238 0 0
        CHANNELS 3 Zrotation Xrotation Yrotation
        JOINT LeftToeBase
        {
          OFFSET 12.7242 0 0
          CHANNELS 3 Zrotation Xrotation Yrotation
          End Site
          {
            OFFSET 0 0 0
          }
        }
      }
    }
  }
  JOINT RightUpLeg
  {
    OFFSET -8.2249 1.95398 -2.59336
    CHANNELS 3 Zrotation Xrotation Yrotation
    JOINT RightLeg
    {
      OFFSET 43.5653 0 0
      CHANNELS 3 Zrotation Xrotation Yrotation
      JOINT RightFoot
      {
        OFFSET 40.6238 0 0
        CHANNELS 3 Zrotation Xrotation Yrotation
        JOINT RightToeBase
        {
          OFFSET 12.7242 0 0
          CHANNELS 3 Zrotation Xrotation Yrotation
          End Site
          {
            OFFSET 0 0 0
          }
        }
      }
    }
  }
  JOINT Spine
  {
    OFFSET 0.165834 0.87714 6.61349
    CHANNELS 3 Zrotation Xrotation Yrotation
    JOINT Spine1
    {
      OFFSET 7.38963 1.71661e-005 0
      CHANNELS 3 Zrotation Xrotation Yrotation
      JOINT Spine2
      {
        OFFSET 11.9445 1.14441e-005 0
        CHANNELS 3 Zrotation Xrotation Yrotation
        JOINT Spine3
        {
          OFFSET 14.7254 4.19617e-005 0
          CHANNELS 3 Zrotation Xrotation Yrotation
          JOINT Spine4
          {
            OFFSET 10.9679 0 0
            CHANNELS 3 Zrotation Xrotation Yrotation
            JOINT RightShoulder
            {
              OFFSET 2.46616 -1.6653 3.69651
              CHANNELS 3 Zrotation Xrotation Yrotation
              JOINT RightArm
              {
                OFFSET 13.0012 0 0
                CHANNELS 3 Zrotation Xrotation Yrotation
                JOINT RightForeArm
                {
                  OFFSET 28.7848 1.52588e-005 0
                  CHANNELS 3 Zrotation Xrotation Yrotation
                  JOINT RightHand
                  {
                    OFFSET 26.5688 1.52588e-005 0
                    CHANNELS 3 Zrotation Xrotation Yrotation
                    End Site
                    {
                      OFFSET 0 0 0
                    }
                  }
                }
              }
            }
            JOINT LeftShoulder
            {
              OFFSET 2.38034 -1.29275 -3.7523
              CHANNELS 3 Zrotation Xrotation Yrotation
              JOINT LeftArm
              {
                OFFSET 16.3182 6.10351e-005 0
                CHANNELS 3 Zrotation Xrotation Yrotation
                JOINT LeftForeArm
                {
                  OFFSET 27.0901 0 0
                  CHANNELS 3 Zrotation Xrotation Yrotation
                  JOINT LeftHand
                  {
                    OFFSET 24.5451 1.52588e-005 0
                    CHANNELS 3 Zrotation Xrotation Yrotation
                    End Site
                    {
                      OFFSET 0 0 0
                    }
                  }
                }
              }
            }
            JOINT Neck
            {
              OFFSET 5.0226 -0.0266342 0
              CHANNELS 3 Zrotation Xrotation Yrotation
              JOINT Head
              {
                OFFSET 6.69364 2.86102e-005 0
                CHANNELS 3 Zrotation Xrotation Yrotation
                End Site
                {
                  OFFSET 0 0 0
                }
              }
            }
          }
        }
      }
    }
  }
}
MOTION
Frames:	9
Frame Time:	0.0416667
-5.44012 95.9307 25.4496 -170.671 -87.1813 -164.163 -168.214 15.0405 108.139 -36.3592 18.0775 1.23386 81.5747 9.32022 -5.77845 25.2544 -5.82708 9.54505 175.632 2.78995 101.616 -22.614 -5.91707 2.00949 79.2503 -6.72358 -0.65997 13.3546 -2.38673 6.16373 0.388009 7.75925 -91.1065 11.3526 0.256228 -2.22934 -0.320217 0.157874 -2.23845 -22.8421 0.914241 -2.04941 -2.82946 0.914243 -2.04941 88.8353 -33.3105 -107.748 31.982 -15.1745 -7.55277 2.51556 -29.8233 -15.6493 -24.1962 -0.455632 -6.32156 -84.7172 -52.8797 87.0173 -19.2966 23.6968 -24.1439 -2.41672 9.80255 -7.44911 3.429 -0.17299 -5.99714 9.23763 -0.469685 -11.9425 -2.97824 2.16131 0.0274346 
-5.47817 95.9369 24.9736 -153.286 -87.0886 -146.568 -168.133 15.483 108.27 -36.5216 17.2828 1.20535 81.6464 9.37452 -6.02424 24.9404 -6.0516 9.87006 176.079 3.00812 102.049 -21.8397 -6.15526 1.51193 78.3596 -5.9379 -0.260177 13.67 -2.21735 5.84969 0.323115 7.73811 -91.1023 11.3937 0.128641 -2.20833 -0.279115 0.0313515 -2.21185 -22.8007 0.786246 -2.06768 -2.78804 0.786246 -2.06769 88.3687 -33.9762 -108.367 30.8615 -15.4466 -8.04495 2.5244 -29.2 -14.9207 -24.4262 -0.387326 -6.60162 -84.335 -52.6584 87.551 -19.1405 24.0474 -24.8416 -2.5802 10.9339 -7.10579 5.80923 -0.0952626 -4.42343 8.90354 -0.67699 -13.8362 -3.32862 2.35262 -1.212 
-5.40398 95.8791 24.4939 -141.614 -87.1149 -135.033 -168.168 16.0909 107.984 -36.7028 16.8706 1.07244 81.4964 9.4134 -5.80209 25.5299 -6.04816 9.92366 175.941 3.56883 101.905 -21.5215 -6.65513 1.36859 78.0886 -5.75115 -1.08446 14.3941 -3.24219 7.80907 0.241479 7.73151 -91.0822 11.4056 -0.024546 -2.15298 -0.267108 -0.11925 -2.14983 -22.7888 0.623514 -2.0609 -2.77613 0.623508 -2.06092 88.1471 -34.0274 -108.759 30.5872 -14.872 -8.29251 2.56557 -30.9716 -14.7822 -24.7397 -0.327038 -7.18669 -84.4392 -52.7075 87.4035 -18.9169 24.5696 -25.2852 -2.76367 10.4998 -7.31302 4.24561 -0.165723 -5.64737 9.12155 -1.21916 -14.7466 -3.61199 2.06152 -1.84372 
-5.34381 95.8055 23.8973 -132.009 -86.5016 -125.453 -168.155 16.3803 107.855 -37.1255 16.1934 1.03965 81.4277 9.43168 -5.93949 26.0179 -6.49634 10.696 175.931 4.19913 101.838 -22.1019 -6.98182 1.19844 77.6929 -5.40463 -0.264222 15.3722 -3.03227 7.44507 0.166799 7.76217 -91.0491 11.3434 -0.157079 -2.0734 -0.329165 -0.248162 -2.06449 -22.8515 0.473189 -2.0248 -2.83884 0.473189 -2.02481 88.1082 -34.2754 -108.735 30.4659 -15.1671 -8.35205 3.60228 -30.6547 -14.2956 -24.7288 -0.175445 -7.9551 -84.2533 -52.2297 87.6229 -19.2791 24.6745 -24.9962 -3.00679 8.90137 -7.30228 5.23104 -0.171337 -5.58797 9.33938 -1.44561 -15.8497 -3.7915 2.11435 -1.6663 
-5.13182 95.9012 23.6136 -125.459 -85.1911 -118.607 -167.969 15.895 108.093 -37.1624 14.5268 0.898989 81.4747 9.38242 -6.64902 26.5249 -6.49797 10.7581 175.965 3.73117 101.8 -21.6414 -8.37156 1.24648 77.1374 -5.51306 -0.661035 15.5101 -3.36059 8.11028 0.209416 7.80551 -91.0821 11.257 -0.0868584 -2.14584 -0.415664 -0.181192 -2.13995 -22.9373 0.561931 -2.07281 -2.92462 0.561925 -2.07282 88.2309 -34.0594 -108.591 30.8827 -14.7399 -7.96428 3.14479 -31.1082 -14.3106 -25.1878 -0.330455 -7.1488 -84.2915 -52.1884 87.5619 -19.4453 24.2024 -24.8501 -2.2463 12.1917 -7.60215 3.01451 -0.136477 -5.34668 8.42575 -1.23755 -16.7195 -2.30279 2.35212 -1.26028 
-4.88097 95.891 23.5608 -123.503 -85.1675 -116.466 -168.13 16.1391 108.043 -37.4968 14.5179 0.983926 81.7148 9.52653 -6.35716 26.0398 -6.42447 10.5823 175.937 3.69267 101.738 -21.2311 -8.34228 1.29163 77.6531 -5.84471 -1.08092 15.3319 -4.03243 9.41934 0.168681 7.80894 -91.1232 11.2488 -0.186986 -2.21773 -0.424013 -0.28438 -2.20737 -22.9444 0.488016 -2.17147 -2.93179 0.488022 -2.17146 88.3381 -33.9696 -108.426 30.7492 -14.0452 -8.0536 3.43255 -32.1813 -13.9883 -24.6481 -0.121073 -8.51427 -84.388 -52.6896 87.477 -18.6385 24.5761 -25.3849 -2.55793 11.7631 -7.65373 3.58215 -0.127108 -5.07397 8.70998 -1.31265 -16.8638 -2.35778 2.3536 -1.61815 
-4.42773 95.9818 23.5611 -122.821 -85.0193 -115.822 -168.372 15.894 107.613 -37.4878 14.0267 1.01041 81.6545 9.57383 -6.15167 26.2272 -6.60614 10.8987 175.483 3.43673 101.072 -20.7971 -8.42102 1.53768 77.0641 -5.4793 0.463368 16.7272 -3.3553 8.16027 0.167669 7.80692 -91.158 11.2523 -0.205218 -2.28515 -0.42059 -0.305567 -2.27392 -22.9401 0.490871 -2.24124 -2.92745 0.490872 -2.24125 88.44 -33.7801 -108.31 30.6793 -14.5402 -7.93565 3.50498 -31.118 -14.5043 -24.8482 -0.123754 -8.29549 -84.5869 -53.0206 87.224 -18.762 24.6214 -25.5661 -2.59581 12.2445 -7.51187 3.4092 -0.110294 -4.76263 8.38069 -1.39997 -16.4758 -1.92102 2.12996 -2.4771 
-3.68229 96.1538 23.7212 -123.228 -84.803 -116.42 -168.782 15.0177 106.805 -36.9949 13.0367 1.04691 81.7195 9.65825 -6.12686 26.4378 -6.73038 11.1255 175.111 2.96974 100.176 -20.294 -8.7983 1.54199 76.1392 -5.07206 1.87564 18.1845 -2.53353 6.54204 0.180574 7.81429 -91.156 11.2378 -0.178462 -2.28394 -0.435121 -0.278784 -2.27388 -22.9547 0.516026 -2.23205 -2.94204 0.516025 -2.23205 88.323 -34.0479 -108.425 30.57 -14.5087 -8.13333 3.65948 -30.0154 -13.9123 -24.8993 -0.25598 -7.3957 -84.7363 -52.9161 86.9937 -18.4797 25.1202 -26.0165 -3.00906 12.4393 -7.20183 3.75772 -0.0808345 -4.19978 7.96992 -1.47094 -17.065 -1.75381 2.12189 -2.09485 
-2.58407 96.4841 23.9557 -124.086 -84.4547 -117.86 -169.737 13.3204 105.169 -35.793 11.0009 1.22112 81.6438 9.70496 -6.394 26.3018 -7.17985 11.8361 174.733 2.37984 98.9586 -19.7297 -9.84797 1.26378 75.9188 -5.41107 0.353375 17.8415 -3.56551 8.6701 0.222212 7.83967 -91.1266 11.1883 -0.0814285 -2.2347 -0.484529 -0.179677 -2.22897 -23.005 0.593797 -2.15595 -2.99238 0.593792 -2.15595 88.0488 -34.1126 -108.908 30.3994 -14.2775 -7.94148 3.38952 -31.9405 -14.4443 -24.1443 -0.369138 -7.1347 -84.7311 -52.8749 86.9964 -18.908 25.1298 -26.27 -2.90484 12.5832 -7.17611 3.13705 -0.103651 -4.64257 7.89951 -1.44359 -16.808 -1.87763 2.08641 -2.50822 
